<svg xmlns="http://www.w3.org/2000/svg" viewBox="25 8 145 175">
  <defs>
    <linearGradient id="pickMain" x1="20%" y1="0%" x2="80%" y2="100%">
      <stop offset="0%" style="stop-color:#10d98a"/>
      <stop offset="40%" style="stop-color:#10b981"/>
      <stop offset="100%" style="stop-color:#059669"/>
    </linearGradient>
    <linearGradient id="pickLeft" x1="0%" y1="0%" x2="100%" y2="0%">
      <stop offset="0%" style="stop-color:#047857"/>
      <stop offset="100%" style="stop-color:#059669"/>
    </linearGradient>
    <linearGradient id="pickHighlight" x1="0%" y1="0%" x2="100%" y2="100%">
      <stop offset="0%" style="stop-color:#6ee7b7;stop-opacity:1"/>
      <stop offset="100%" style="stop-color:#10b981;stop-opacity:0"/>
    </linearGradient>
    <filter id="pickShadow">
      <feDropShadow dx="2" dy="4" stdDeviation="6" flood-color="rgba(5,150,105,0.4)"/>
    </filter>
    <clipPath id="pickClip">
      <path d="M 95 15 C 130 15, 158 36, 158 65 C 158 94, 138 122, 95 175 C 52 122, 32 94, 32 65 C 32 36, 60 15, 95 15 Z"/>
    </clipPath>
  </defs>

  <path d="M 95 15 C 130 15, 158 36, 158 65 C 158 94, 138 122, 95 175 C 52 122, 32 94, 32 65 C 32 36, 60 15, 95 15 Z"
        fill="url(#pickMain)" filter="url(#pickShadow)"/>
  <path d="M 95 15 C 75 15, 55 28, 42 46 C 35 56, 32 61, 32 65 C 32 94, 52 122, 95 175 C 78 148, 65 125, 58 105 C 50 82, 50 60, 58 42 C 66 26, 80 17, 95 15 Z"
        fill="url(#pickLeft)" opacity="0.7"/>
  <path d="M 95 15 C 125 15, 150 33, 156 58 C 148 42, 130 20, 95 15 Z"
        fill="url(#pickHighlight)" opacity="0.6"/>

  <g clip-path="url(#pickClip)">
    <path d="M 52 48 Q 88 58, 130 42" fill="none" stroke="rgba(255,255,255,0.75)" stroke-width="2.2" stroke-linecap="round"/>
    <circle cx="52" cy="48" r="3.5" fill="rgba(255,255,255,0.85)"/>
    <path d="M 45 68 Q 90 82, 140 60" fill="none" stroke="rgba(255,255,255,0.65)" stroke-width="2.2" stroke-linecap="round"/>
    <circle cx="45" cy="68" r="3.5" fill="rgba(255,255,255,0.8)"/>
    <path d="M 40 90 Q 88 108, 148 82" fill="none" stroke="rgba(255,255,255,0.55)" stroke-width="2.2" stroke-linecap="round"/>
    <circle cx="40" cy="90" r="3.5" fill="rgba(255,255,255,0.75)"/>
    <path d="M 38 112 Q 85 134, 148 108" fill="none" stroke="rgba(255,255,255,0.4)" stroke-width="2.2" stroke-linecap="round"/>
    <circle cx="38" cy="112" r="3.5" fill="rgba(255,255,255,0.65)"/>
  </g>
</svg>
